<svg width="230" height="65" viewBox="0 0 230 65" fill="none" xmlns="http://www.w3.org/2000/svg">
<path d="M93.8626 33.9105L94.3736 28.4169H109.151L109.619 33.9105H93.8626ZM101.656 20.7941L97.4824 30.4184L97.8231 31.9941L94.1181 39.6595H85.9843L101.656 7.97582L117.37 39.6595H109.193L105.616 32.2922L105.872 30.461L101.656 20.7941ZM133.687 20.0701H140.841L133.346 29.6093L141.267 39.6595H134.113L130.024 33.953L126.021 39.6595H118.612L126.66 29.6093L119.037 20.0701H126.447L130.024 25.223L133.687 20.0701ZM142.554 12.7028C142.554 11.6808 142.923 10.8574 143.661 10.2329C144.4 9.57988 145.28 9.25339 146.302 9.25339C147.352 9.25339 148.232 9.57988 148.942 10.2329C149.68 10.8574 150.049 11.6808 150.049 12.7028C150.049 13.7249 149.68 14.5624 148.942 15.2154C148.232 15.8684 147.352 16.1948 146.302 16.1948C145.28 16.1948 144.4 15.8684 143.661 15.2154C142.923 14.5624 142.554 13.7249 142.554 12.7028ZM143.193 20.0701H149.411V39.6595H143.193V20.0701ZM152.705 29.8648C152.705 27.7923 153.188 25.9895 154.153 24.4565C155.118 22.9234 156.453 21.731 158.156 20.8793C159.86 20.0275 161.776 19.6017 163.905 19.6017C166.035 19.6017 167.937 20.0275 169.612 20.8793C171.315 21.731 172.65 22.9234 173.615 24.4565C174.608 25.9895 175.105 27.7923 175.105 29.8648C175.105 31.9089 174.608 33.6975 173.615 35.2306C172.65 36.7637 171.315 37.9561 169.612 38.8078C167.937 39.6595 166.035 40.0854 163.905 40.0854C161.776 40.0854 159.86 39.6595 158.156 38.8078C156.453 37.9561 155.118 36.7637 154.153 35.2306C153.188 33.6975 152.705 31.9089 152.705 29.8648ZM159.306 29.8648C159.306 30.8869 159.519 31.767 159.945 32.5051C160.371 33.2149 160.924 33.7685 161.606 34.166C162.287 34.5634 163.054 34.7622 163.905 34.7622C164.729 34.7622 165.481 34.5634 166.162 34.166C166.872 33.7685 167.426 33.2149 167.823 32.5051C168.249 31.767 168.462 30.8869 168.462 29.8648C168.462 28.8428 168.249 27.9627 167.823 27.2245C167.426 26.4864 166.872 25.9186 166.162 25.5211C165.481 25.1236 164.729 24.9249 163.905 24.9249C163.054 24.9249 162.287 25.1236 161.606 25.5211C160.924 25.9186 160.371 26.4864 159.945 27.2245C159.519 27.9627 159.306 28.8428 159.306 29.8648ZM190.855 27.7355C190.855 26.5715 190.628 25.6772 190.174 25.0526C189.748 24.4281 189.024 24.1158 188.002 24.1158C187.321 24.1158 186.725 24.2577 186.214 24.5416C185.702 24.8255 185.305 25.2372 185.021 25.7766C184.737 26.316 184.595 26.969 184.595 27.7355V39.6595H178.122V20.0701H184.595V23.0085C185.163 21.9297 185.93 21.0922 186.895 20.496C187.889 19.8998 189.109 19.6017 190.557 19.6017C192.999 19.6017 194.773 20.2547 195.88 21.5606C196.988 22.8666 197.541 24.6978 197.541 27.0542V39.6595H190.855V27.7355ZM218.757 9.84958H227.658L218.289 24.3713L228.296 39.6595H219.396L213.945 29.7371L208.324 39.6595H199.423L209.644 24.3713L200.488 9.84958H209.388L213.988 18.4945L218.757 9.84958Z" fill="#0A1131"/>
<path d="M85.7573 47.9055H87.4211V57.6111H85.7573V47.9055ZM88.8908 57.6111H86.7694V56.0721H88.8492C89.3298 56.0721 89.7735 56.0027 90.1802 55.8641C90.5869 55.7254 90.9382 55.5175 91.234 55.2402C91.539 54.9628 91.7747 54.6162 91.9411 54.2003C92.1167 53.7843 92.2045 53.3037 92.2045 52.7583C92.2045 52.2129 92.1167 51.7323 91.9411 51.3163C91.7747 50.9004 91.539 50.5538 91.234 50.2765C90.9382 49.9991 90.5869 49.7912 90.1802 49.6525C89.7735 49.5139 89.3298 49.4445 88.8492 49.4445H86.7694V47.9055H88.8908C89.8798 47.9055 90.7487 48.1089 91.4974 48.5156C92.2461 48.9131 92.8285 49.4769 93.2444 50.2071C93.6696 50.9281 93.8822 51.7785 93.8822 52.7583C93.8822 53.7381 93.6696 54.5931 93.2444 55.3233C92.8285 56.0443 92.2461 56.6082 91.4974 57.0149C90.7487 57.4123 89.8798 57.6111 88.8908 57.6111ZM98.2521 47.9055H99.902V57.6111H98.2521V47.9055ZM109.46 53.923V52.5365H114.133C114.152 53.2482 114.059 53.923 113.856 54.5608C113.652 55.1893 113.347 55.7485 112.941 56.2384C112.534 56.7283 112.026 57.1166 111.415 57.4031C110.815 57.6804 110.131 57.8191 109.363 57.8191C108.633 57.8191 107.958 57.6989 107.339 57.4586C106.72 57.209 106.179 56.8577 105.717 56.4048C105.264 55.9519 104.913 55.4158 104.663 54.7965C104.414 54.1772 104.289 53.4978 104.289 52.7583C104.289 52.0188 104.414 51.3441 104.663 50.734C104.922 50.1147 105.278 49.5832 105.731 49.1395C106.193 48.6866 106.734 48.34 107.353 48.0996C107.982 47.8593 108.661 47.7391 109.391 47.7391C110.029 47.7391 110.607 47.827 111.124 48.0026C111.642 48.169 112.104 48.4139 112.511 48.7374C112.927 49.0517 113.278 49.4353 113.565 49.8882L112.234 50.7756C111.965 50.3134 111.591 49.9437 111.11 49.6664C110.639 49.3891 110.066 49.2504 109.391 49.2504C108.763 49.2504 108.194 49.3983 107.686 49.6941C107.177 49.9807 106.771 50.3874 106.466 50.9142C106.161 51.4319 106.008 52.0466 106.008 52.7583C106.008 53.4608 106.156 54.0801 106.452 54.6162C106.757 55.1431 107.164 55.5544 107.672 55.8502C108.18 56.146 108.753 56.2939 109.391 56.2939C109.826 56.2939 110.214 56.2338 110.556 56.1137C110.898 55.9935 111.194 55.8225 111.443 55.6006C111.693 55.3788 111.901 55.1246 112.067 54.8381C112.234 54.5515 112.358 54.2465 112.441 53.923H109.46ZM118.584 47.9055H120.234V57.6111H118.584V47.9055ZM124.205 49.4168V47.9055H130.971V49.4168H128.406V57.6111H126.756V49.4168H124.205ZM134.719 55.1154L135.024 53.7289H139.53L139.849 55.1154H134.719ZM137.256 50.6508L135.731 54.2141L135.703 54.5746L134.358 57.6111H132.514L137.256 47.3648L141.998 57.6111H140.154L138.836 54.6578L138.795 54.2557L137.256 50.6508ZM145.9 47.9055H147.536V56.1414H151.39V57.6111H145.9V47.9055ZM162.278 47.9055H163.914V57.6111H162.278V47.9055ZM163.248 49.3475V47.9055H165.203C165.906 47.9055 166.516 48.0303 167.034 48.2799C167.56 48.5202 167.967 48.8668 168.254 49.3198C168.54 49.7634 168.684 50.2949 168.684 50.9142C168.684 51.5336 168.54 52.0697 168.254 52.5226C167.967 52.9755 167.56 53.3268 167.034 53.5763C166.516 53.8167 165.906 53.9368 165.203 53.9368H163.248V52.4949H165.203C165.767 52.4949 166.22 52.3608 166.562 52.0928C166.904 51.8247 167.075 51.4319 167.075 50.9142C167.075 50.3966 166.904 50.0084 166.562 49.7496C166.22 49.4815 165.767 49.3475 165.203 49.3475H163.248ZM176.769 54.7271L179.625 47.9055H181.511L176.769 58.1518L172.027 47.9055H173.912L176.769 54.7271ZM184.997 49.4168V47.9055H191.763V49.4168H189.198V57.6111H187.548V49.4168H184.997ZM202.657 47.9055H204.293V56.1414H208.148V57.6111H202.657V47.9055ZM210.16 49.4168V47.9055H216.926V49.4168H214.361V57.6111H212.711V49.4168H210.16ZM220.89 47.9055H222.554V57.6111H220.89V47.9055ZM224.024 57.6111H221.903V56.0721H223.982C224.463 56.0721 224.907 56.0027 225.313 55.8641C225.72 55.7254 226.071 55.5175 226.367 55.2402C226.672 54.9628 226.908 54.6162 227.074 54.2003C227.25 53.7843 227.338 53.3037 227.338 52.7583C227.338 52.2129 227.25 51.7323 227.074 51.3163C226.908 50.9004 226.672 50.5538 226.367 50.2765C226.071 49.9991 225.72 49.7912 225.313 49.6525C224.907 49.5139 224.463 49.4445 223.982 49.4445H221.903V47.9055H224.024C225.013 47.9055 225.882 48.1089 226.631 48.5156C227.379 48.9131 227.962 49.4769 228.378 50.2071C228.803 50.9281 229.015 51.7785 229.015 52.7583C229.015 53.7381 228.803 54.5931 228.378 55.3233C227.962 56.0443 227.379 56.6082 226.631 57.0149C225.882 57.4123 225.013 57.6111 224.024 57.6111Z" fill="#0A1131"/>
<path d="M39.6534 32.3898L33.7914 40.7652L31.0487 36.85L16.7767 57.2002L11.7455 64.3772H0L25.1781 28.479L31.0487 20.1079L34.8773 25.5631L39.6534 32.3898Z" fill="url(#paint0_linear_380_188)"/>
<path d="M57.0615 57.2001H45.3161L42.3613 52.9864L48.2276 44.6024L57.0615 57.2001Z" fill="url(#paint1_linear_380_188)"/>
<path d="M70.0617 9.62997L62.7116 20.1079L56.0061 29.673L54.0853 32.4071L54.0896 32.4114L48.2234 40.7911L48.2148 40.7825L46.8823 42.6816L41.0074 51.057L36.6986 57.2001H24.9531L27.7867 53.1639L29.5518 50.6417L35.1368 42.6816L41.0074 34.3062L42.3399 32.4071L42.3269 32.3898L42.1884 32.1864L40.9944 30.4776L33.7309 20.1079H45.459L48.2148 24.036L50.9662 20.1079L56.482 12.243V12.2603H63.8797V8.37539H64.9569V9.62997H70.0617Z" fill="url(#paint2_linear_380_188)"/>
<path d="M71.4719 57.2001H59.7265L49.5601 42.6989L55.4263 34.3192L71.4719 57.2001Z" fill="url(#paint3_linear_380_188)"/>
<path d="M63.0144 5.72776H57.3472V11.395H63.0144V5.72776Z" fill="url(#paint4_linear_380_188)"/>
<path d="M70.4043 4.17901H65.8223V8.76535H70.4043V4.17901Z" fill="url(#paint5_linear_380_188)"/>
<path d="M63.971 0H60.3408V3.63013H63.971V0Z" fill="url(#paint6_linear_380_188)"/>
<defs>
<linearGradient id="paint0_linear_380_188" x1="1.98097" y1="64.4986" x2="67.7567" y2="2.38393e-05" gradientUnits="userSpaceOnUse">
<stop stop-color="#9D5FE1"/>
<stop offset="0.5" stop-color="#359CF5"/>
<stop offset="1" stop-color="#0BD4E6"/>
</linearGradient>
<linearGradient id="paint1_linear_380_188" x1="4.53519" y1="66.095" x2="68.0758" y2="0.638572" gradientUnits="userSpaceOnUse">
<stop stop-color="#9D5FE1"/>
<stop offset="0.5" stop-color="#359CF5"/>
<stop offset="1" stop-color="#0BD4E6"/>
</linearGradient>
<linearGradient id="paint2_linear_380_188" x1="3.57739" y1="66.0951" x2="67.7566" y2="0.957914" gradientUnits="userSpaceOnUse">
<stop stop-color="#9D5FE1"/>
<stop offset="0.5" stop-color="#359CF5"/>
<stop offset="1" stop-color="#0BD4E6"/>
</linearGradient>
<linearGradient id="paint3_linear_380_188" x1="5.17377" y1="67.0529" x2="68.3951" y2="1.27715" gradientUnits="userSpaceOnUse">
<stop stop-color="#9D5FE1"/>
<stop offset="0.5" stop-color="#359CF5"/>
<stop offset="1" stop-color="#0BD4E6"/>
</linearGradient>
<linearGradient id="paint4_linear_380_188" x1="4.21597" y1="67.0529" x2="68.0759" y2="0.957883" gradientUnits="userSpaceOnUse">
<stop stop-color="#9D5FE1"/>
<stop offset="0.5" stop-color="#359CF5"/>
<stop offset="1" stop-color="#0BD4E6"/>
</linearGradient>
<linearGradient id="paint5_linear_380_188" x1="5.16562" y1="66.423" x2="70.3118" y2="1.59609" gradientUnits="userSpaceOnUse">
<stop stop-color="#9D5FE1"/>
<stop offset="0.5" stop-color="#359CF5"/>
<stop offset="1" stop-color="#0BD4E6"/>
</linearGradient>
<linearGradient id="paint6_linear_380_188" x1="4.20815" y1="66.4236" x2="68.077" y2="-9.10194e-06" gradientUnits="userSpaceOnUse">
<stop stop-color="#9D5FE1"/>
<stop offset="0.5" stop-color="#359CF5"/>
<stop offset="1" stop-color="#0BD4E6"/>
</linearGradient>
</defs>
</svg>
