<svg width="230" height="65" viewBox="0 0 230 65" fill="none" xmlns="http://www.w3.org/2000/svg">
<path d="M93.8631 33.9106L94.3741 28.4171H109.151L109.62 33.9106H93.8631ZM101.656 20.7942L97.4829 30.4186L97.8236 31.9943L94.1186 39.6597H85.9848L101.656 7.97597L117.37 39.6597H109.194L105.617 32.2924L105.872 30.4612L101.656 20.7942ZM133.687 20.0703H140.842L133.347 29.6095L141.268 39.6597H134.113L130.025 33.9532L126.022 39.6597H118.612L126.661 29.6095L119.038 20.0703H126.448L130.025 25.2231L133.687 20.0703ZM142.555 12.703C142.555 11.6809 142.924 10.8576 143.662 10.233C144.4 9.58003 145.28 9.25354 146.302 9.25354C147.353 9.25354 148.233 9.58003 148.943 10.233C149.681 10.8576 150.05 11.6809 150.05 12.703C150.05 13.725 149.681 14.5625 148.943 15.2155C148.233 15.8685 147.353 16.195 146.302 16.195C145.28 16.195 144.4 15.8685 143.662 15.2155C142.924 14.5625 142.555 13.725 142.555 12.703ZM143.194 20.0703H149.411V39.6597H143.194V20.0703ZM152.706 29.865C152.706 27.7925 153.188 25.9897 154.154 24.4566C155.119 22.9235 156.453 21.7311 158.157 20.8794C159.86 20.0277 161.777 19.6018 163.906 19.6018C166.035 19.6018 167.937 20.0277 169.612 20.8794C171.316 21.7311 172.65 22.9235 173.615 24.4566C174.609 25.9897 175.106 27.7925 175.106 29.865C175.106 31.9091 174.609 33.6977 173.615 35.2308C172.65 36.7638 171.316 37.9562 169.612 38.808C167.937 39.6597 166.035 40.0855 163.906 40.0855C161.777 40.0855 159.86 39.6597 158.157 38.808C156.453 37.9562 155.119 36.7638 154.154 35.2308C153.188 33.6977 152.706 31.9091 152.706 29.865ZM159.307 29.865C159.307 30.887 159.519 31.7671 159.945 32.5053C160.371 33.215 160.925 33.7687 161.606 34.1661C162.288 34.5636 163.054 34.7623 163.906 34.7623C164.729 34.7623 165.481 34.5636 166.163 34.1661C166.873 33.7687 167.426 33.215 167.824 32.5053C168.25 31.7671 168.462 30.887 168.462 29.865C168.462 28.8429 168.25 27.9628 167.824 27.2247C167.426 26.4865 166.873 25.9187 166.163 25.5212C165.481 25.1238 164.729 24.925 163.906 24.925C163.054 24.925 162.288 25.1238 161.606 25.5212C160.925 25.9187 160.371 26.4865 159.945 27.2247C159.519 27.9628 159.307 28.8429 159.307 29.865ZM190.856 27.7357C190.856 26.5717 190.629 25.6774 190.174 25.0528C189.749 24.4282 189.025 24.1159 188.003 24.1159C187.321 24.1159 186.725 24.2579 186.214 24.5418C185.703 24.8257 185.306 25.2373 185.022 25.7768C184.738 26.3162 184.596 26.9692 184.596 27.7357V39.6597H178.123V20.0703H184.596V23.0087C185.164 21.9299 185.93 21.0923 186.895 20.4961C187.889 19.8999 189.11 19.6018 190.558 19.6018C192.999 19.6018 194.774 20.2548 195.881 21.5608C196.988 22.8667 197.542 24.6979 197.542 27.0543V39.6597H190.856V27.7357ZM218.758 9.84974H227.658L218.289 24.3714L228.297 39.6597H219.397L213.946 29.7372L208.324 39.6597H199.424L209.644 24.3714L200.488 9.84974H209.389L213.988 18.4946L218.758 9.84974Z" fill="white"/>
<path d="M85.7575 47.9058H87.4213V57.6113H85.7575V47.9058ZM88.891 57.6113H86.7697V56.0723H88.8494C89.3301 56.0723 89.7738 56.003 90.1805 55.8643C90.5872 55.7257 90.9384 55.5177 91.2342 55.2404C91.5392 54.9631 91.7749 54.6165 91.9413 54.2005C92.117 53.7846 92.2048 53.3039 92.2048 52.7585C92.2048 52.2132 92.117 51.7325 91.9413 51.3166C91.7749 50.9006 91.5392 50.554 91.2342 50.2767C90.9384 49.9994 90.5872 49.7914 90.1805 49.6528C89.7738 49.5141 89.3301 49.4448 88.8494 49.4448H86.7697V47.9058H88.891C89.8801 47.9058 90.7489 48.1091 91.4976 48.5158C92.2464 48.9133 92.8287 49.4771 93.2446 50.2074C93.6698 50.9284 93.8824 51.7787 93.8824 52.7585C93.8824 53.7383 93.6698 54.5934 93.2446 55.3236C92.8287 56.0446 92.2464 56.6084 91.4976 57.0151C90.7489 57.4126 89.8801 57.6113 88.891 57.6113ZM98.2523 47.9058H99.9023V57.6113H98.2523V47.9058ZM109.461 53.9232V52.5367H114.133C114.152 53.2484 114.059 53.9232 113.856 54.561C113.653 55.1896 113.348 55.7488 112.941 56.2387C112.534 56.7286 112.026 57.1168 111.416 57.4034C110.815 57.6807 110.131 57.8193 109.364 57.8193C108.633 57.8193 107.959 57.6991 107.339 57.4588C106.72 57.2092 106.179 56.858 105.717 56.4051C105.264 55.9521 104.913 55.416 104.663 54.7967C104.414 54.1774 104.289 53.498 104.289 52.7585C104.289 52.0191 104.414 51.3443 104.663 50.7342C104.922 50.1149 105.278 49.5834 105.731 49.1398C106.193 48.6868 106.734 48.3402 107.353 48.0999C107.982 47.8596 108.661 47.7394 109.391 47.7394C110.029 47.7394 110.607 47.8272 111.125 48.0028C111.642 48.1692 112.104 48.4142 112.511 48.7377C112.927 49.0519 113.278 49.4356 113.565 49.8885L112.234 50.7758C111.966 50.3137 111.591 49.9439 111.111 49.6666C110.639 49.3893 110.066 49.2507 109.391 49.2507C108.763 49.2507 108.194 49.3986 107.686 49.6944C107.178 49.9809 106.771 50.3876 106.466 50.9145C106.161 51.4321 106.008 52.0468 106.008 52.7585C106.008 53.461 106.156 54.0804 106.452 54.6165C106.757 55.1433 107.164 55.5547 107.672 55.8505C108.181 56.1463 108.754 56.2941 109.391 56.2941C109.826 56.2941 110.214 56.2341 110.556 56.1139C110.898 55.9937 111.194 55.8227 111.443 55.6009C111.693 55.379 111.901 55.1249 112.067 54.8383C112.234 54.5518 112.359 54.2467 112.442 53.9232H109.461ZM118.584 47.9058H120.234V57.6113H118.584V47.9058ZM124.205 49.4171V47.9058H130.971V49.4171H128.406V57.6113H126.756V49.4171H124.205ZM134.719 55.1156L135.024 53.7291H139.53L139.849 55.1156H134.719ZM137.256 50.6511L135.731 54.2144L135.703 54.5749L134.358 57.6113H132.514L137.256 47.365L141.998 57.6113H140.154L138.837 54.6581L138.795 54.256L137.256 50.6511ZM145.9 47.9058H147.536V56.1416H151.391V57.6113H145.9V47.9058ZM162.278 47.9058H163.914V57.6113H162.278V47.9058ZM163.249 49.3477V47.9058H165.204C165.906 47.9058 166.516 48.0306 167.034 48.2801C167.561 48.5205 167.967 48.8671 168.254 49.32C168.541 49.7637 168.684 50.2952 168.684 50.9145C168.684 51.5338 168.541 52.0699 168.254 52.5228C167.967 52.9758 167.561 53.327 167.034 53.5766C166.516 53.8169 165.906 53.9371 165.204 53.9371H163.249V52.4951H165.204C165.768 52.4951 166.22 52.3611 166.562 52.093C166.904 51.825 167.075 51.4321 167.075 50.9145C167.075 50.3969 166.904 50.0086 166.562 49.7498C166.22 49.4818 165.768 49.3477 165.204 49.3477H163.249ZM176.769 54.7274L179.625 47.9058H181.511L176.769 58.1521L172.027 47.9058H173.913L176.769 54.7274ZM184.997 49.4171V47.9058H191.764V49.4171H189.199V57.6113H187.549V49.4171H184.997ZM202.657 47.9058H204.294V56.1416H208.148V57.6113H202.657V47.9058ZM210.16 49.4171V47.9058H216.927V49.4171H214.361V57.6113H212.712V49.4171H210.16ZM220.891 47.9058H222.554V57.6113H220.891V47.9058ZM224.024 57.6113H221.903V56.0723H223.983C224.463 56.0723 224.907 56.003 225.314 55.8643C225.72 55.7257 226.072 55.5177 226.367 55.2404C226.672 54.9631 226.908 54.6165 227.074 54.2005C227.25 53.7846 227.338 53.3039 227.338 52.7585C227.338 52.2132 227.25 51.7325 227.074 51.3166C226.908 50.9006 226.672 50.554 226.367 50.2767C226.072 49.9994 225.72 49.7914 225.314 49.6528C224.907 49.5141 224.463 49.4448 223.983 49.4448H221.903V47.9058H224.024C225.013 47.9058 225.882 48.1091 226.631 48.5158C227.379 48.9133 227.962 49.4771 228.378 50.2074C228.803 50.9284 229.016 51.7787 229.016 52.7585C229.016 53.7383 228.803 54.5934 228.378 55.3236C227.962 56.0446 227.379 56.6084 226.631 57.0151C225.882 57.4126 225.013 57.6113 224.024 57.6113Z" fill="white"/>
<path d="M39.6534 32.3898L33.7914 40.7652L31.0487 36.8501L16.7767 57.2002L11.7455 64.3773H0L25.1781 28.479L31.0487 20.1079L34.8773 25.5632L39.6534 32.3898Z" fill="url(#paint0_linear_361_391)"/>
<path d="M57.0618 57.2002H45.3163L42.3616 52.9866L48.2278 44.6025L57.0618 57.2002Z" fill="url(#paint1_linear_361_391)"/>
<path d="M70.0617 9.63007L62.7116 20.108L56.0061 29.673L54.0853 32.4072L54.0896 32.4115L48.2234 40.7912L48.2148 40.7826L46.8823 42.6817L41.0074 51.0571L36.6986 57.2002H24.9531L27.7867 53.164L29.5518 50.6418L35.1368 42.6817L41.0074 34.3063L42.3399 32.4072L42.3269 32.3899L42.1884 32.1865L40.9944 30.4777L33.7309 20.108H45.459L48.2148 24.0361L50.9662 20.108L56.482 12.2431V12.2604H63.8797V8.37549H64.9569V9.63007H70.0617Z" fill="url(#paint2_linear_361_391)"/>
<path d="M71.4722 57.2003H59.7267L49.5603 42.6991L55.4265 34.3193L71.4722 57.2003Z" fill="url(#paint3_linear_361_391)"/>
<path d="M63.0144 5.72754H57.3472V11.3948H63.0144V5.72754Z" fill="url(#paint4_linear_361_391)"/>
<path d="M70.404 4.1792H65.822V8.76554H70.404V4.1792Z" fill="url(#paint5_linear_361_391)"/>
<path d="M63.971 0H60.3408V3.63013H63.971V0Z" fill="url(#paint6_linear_361_391)"/>
<defs>
<linearGradient id="paint0_linear_361_391" x1="1.98097" y1="64.4986" x2="67.7567" y2="4.29128e-05" gradientUnits="userSpaceOnUse">
<stop stop-color="#9D5FE1"/>
<stop offset="0.5" stop-color="#359CF5"/>
<stop offset="1" stop-color="#0BD4E6"/>
</linearGradient>
<linearGradient id="paint1_linear_361_391" x1="4.53543" y1="66.0952" x2="68.0761" y2="0.638714" gradientUnits="userSpaceOnUse">
<stop stop-color="#9D5FE1"/>
<stop offset="0.5" stop-color="#359CF5"/>
<stop offset="1" stop-color="#0BD4E6"/>
</linearGradient>
<linearGradient id="paint2_linear_361_391" x1="3.57739" y1="66.0951" x2="67.7566" y2="0.958009" gradientUnits="userSpaceOnUse">
<stop stop-color="#9D5FE1"/>
<stop offset="0.5" stop-color="#359CF5"/>
<stop offset="1" stop-color="#0BD4E6"/>
</linearGradient>
<linearGradient id="paint3_linear_361_391" x1="5.17401" y1="67.053" x2="68.3954" y2="1.27728" gradientUnits="userSpaceOnUse">
<stop stop-color="#9D5FE1"/>
<stop offset="0.5" stop-color="#359CF5"/>
<stop offset="1" stop-color="#0BD4E6"/>
</linearGradient>
<linearGradient id="paint4_linear_361_391" x1="4.21597" y1="67.0527" x2="68.0759" y2="0.957666" gradientUnits="userSpaceOnUse">
<stop stop-color="#9D5FE1"/>
<stop offset="0.5" stop-color="#359CF5"/>
<stop offset="1" stop-color="#0BD4E6"/>
</linearGradient>
<linearGradient id="paint5_linear_361_391" x1="5.16537" y1="66.4232" x2="70.3116" y2="1.59628" gradientUnits="userSpaceOnUse">
<stop stop-color="#9D5FE1"/>
<stop offset="0.5" stop-color="#359CF5"/>
<stop offset="1" stop-color="#0BD4E6"/>
</linearGradient>
<linearGradient id="paint6_linear_361_391" x1="4.20815" y1="66.4236" x2="68.077" y2="-9.10194e-06" gradientUnits="userSpaceOnUse">
<stop stop-color="#9D5FE1"/>
<stop offset="0.5" stop-color="#359CF5"/>
<stop offset="1" stop-color="#0BD4E6"/>
</linearGradient>
</defs>
</svg>
